<mxfile host="app.diagrams.net" agent="Mozilla/5.0 (Macintosh; Intel Mac OS X 10_15_7) AppleWebKit/605.1.15 (KHTML, like Gecko) Version/18.4 Safari/605.1.15" version="27.0.6">
  <diagram name="Page-1" id="qCQBoRJt0O49EkEic1T_">
    <mxGraphModel dx="1216" dy="821" grid="1" gridSize="10" guides="1" tooltips="1" connect="1" arrows="1" fold="1" page="1" pageScale="1" pageWidth="827" pageHeight="1169" math="0" shadow="0">
      <root>
        <mxCell id="0" />
        <mxCell id="1" parent="0" />
        <!-- Start -->
        <mxCell id="start" value="Inicio" style="ellipse;whiteSpace=wrap;html=1;" vertex="1" parent="1">
          <mxGeometry x="400" y="50" width="80" height="40" as="geometry" />
        </mxCell>
        <!-- Input Galletas -->
        <mxCell id="inputGalletas" value="Leer cantidadGalletas" style="shape=parallelogram;whiteSpace=wrap;html=1;" vertex="1" parent="1">
          <mxGeometry x="360" y="120" width="160" height="40" as="geometry" />
        </mxCell>
        <!-- Input Alfajores -->
        <mxCell id="inputAlfajores" value="Leer cantidadAlfajores" style="shape=parallelogram;whiteSpace=wrap;html=1;" vertex="1" parent="1">
          <mxGeometry x="360" y="190" width="160" height="40" as="geometry" />
        </mxCell>
        <!-- Input Gaseosas -->
        <mxCell id="inputGaseosas" value="Leer cantidadGaseosas" style="shape=parallelogram;whiteSpace=wrap;html=1;" vertex="1" parent="1">
          <mxGeometry x="360" y="260" width="160" height="40" as="geometry" />
        </mxCell>
        <!-- Decision Galletas -->
        <mxCell id="decGalletas" value="cantidadGalletas &lt; 12?" style="rhombus;whiteSpace=wrap;html=1;" vertex="1" parent="1">
          <mxGeometry x="400" y="330" width="80" height="60" as="geometry" />
        </mxCell>
        <!-- Yes Galletas -->
        <mxCell id="yesGalletas" value="precioGalletas = 2000" style="rounded=0;whiteSpace=wrap;html=1;" vertex="1" parent="1">
          <mxGeometry x="300" y="410" width="120" height="40" as="geometry" />
        </mxCell>
        <!-- No Galletas -->
        <mxCell id="noGalletas" value="precioGalletas = 1700" style="rounded=0;whiteSpace=wrap;html=1;" vertex="1" parent="1">
          <mxGeometry x="500" y="410" width="120" height="40" as="geometry" />
        </mxCell>
        <!-- Merge Galletas -->
        <mxCell id="mergeGalletas" value="" style="ellipse;whiteSpace=wrap;html=1;aspect=fixed;" vertex="1" parent="1">
          <mxGeometry x="400" y="480" width="20" height="20" as="geometry" />
        </mxCell>
        <!-- Decision Alfajores -->
        <mxCell id="decAlfajores" value="cantidadAlfajores &lt; 12?" style="rhombus;whiteSpace=wrap;html=1;" vertex="1" parent="1">
          <mxGeometry x="400" y="530" width="80" height="60" as="geometry" />
        </mxCell>
        <!-- Yes Alfajores -->
        <mxCell id="yesAlfajores" value="precioAlfajores = 1000" style="rounded=0;whiteSpace=wrap;html=1;" vertex="1" parent="1">
          <mxGeometry x="300" y="610" width="120" height="40" as="geometry" />
        </mxCell>
        <!-- No Alfajores -->
        <mxCell id="noAlfajores" value="precioAlfajores = 850" style="rounded=0;whiteSpace=wrap;html=1;" vertex="1" parent="1">
          <mxGeometry x="500" y="610" width="120" height="40" as="geometry" />
        </mxCell>
        <!-- Merge Alfajores -->
        <mxCell id="mergeAlfajores" value="" style="ellipse;whiteSpace=wrap;html=1;aspect=fixed;" vertex="1" parent="1">
          <mxGeometry x="400" y="680" width="20" height="20" as="geometry" />
        </mxCell>
        <!-- Decision Gaseosas -->
        <mxCell id="decGaseosas" value="cantidadGaseosas &lt; 12?" style="rhombus;whiteSpace=wrap;html=1;" vertex="1" parent="1">
          <mxGeometry x="400" y="730" width="80" height="60" as="geometry" />
        </mxCell>
        <!-- Yes Gaseosas -->
        <mxCell id="yesGaseosas" value="precioGaseosas = 2500" style="rounded=0;whiteSpace=wrap;html=1;" vertex="1" parent="1">
          <mxGeometry x="300" y="810" width="120" height="40" as="geometry" />
        </mxCell>
        <!-- No Gaseosas -->
        <mxCell id="noGaseosas" value="precioGaseosas = 2300" style="rounded=0;whiteSpace=wrap;html=1;" vertex="1" parent="1">
          <mxGeometry x="500" y="810" width="120" height="40" as="geometry" />
        </mxCell>
        <!-- Merge Gaseosas -->
        <mxCell id="mergeGaseosas" value="" style="ellipse;whiteSpace=wrap;html=1;aspect=fixed;" vertex="1" parent="1">
          <mxGeometry x="400" y="880" width="20" height="20" as="geometry" />
        </mxCell>
        <!-- Calculate Total -->
        <mxCell id="calcTotal" value="total = (cantidadGalletas * precioGalletas) + (cantidadAlfajores * precioAlfajores) + (cantidadGaseosas * precioGaseosas)" style="rounded=0;whiteSpace=wrap;html=1;" vertex="1" parent="1">
          <mxGeometry x="300" y="930" width="280" height="40" as="geometry" />
        </mxCell>
        <!-- Output -->
        <mxCell id="output" value="Imprimir 'Total a abonar: ' + total" style="shape=parallelogram;whiteSpace=wrap;html=1;" vertex="1" parent="1">
          <mxGeometry x="360" y="1000" width="160" height="40" as="geometry" />
        </mxCell>
        <!-- End -->
        <mxCell id="end" value="Fin" style="ellipse;whiteSpace=wrap;html=1;" vertex="1" parent="1">
          <mxGeometry x="400" y="1070" width="80" height="40" as="geometry" />
        </mxCell>
        <!-- Edges -->
        <mxCell id="e1" style="edgeStyle=orthogonalEdgeStyle;rounded=0;html=1;" edge="1" parent="1" source="start" target="inputGalletas">
          <mxGeometry relative="1" as="geometry" />
        </mxCell>
        <mxCell id="e2" style="edgeStyle=orthogonalEdgeStyle;rounded=0;html=1;" edge="1" parent="1" source="inputGalletas" target="inputAlfajores">
          <mxGeometry relative="1" as="geometry" />
        </mxCell>
        <mxCell id="e3" style="edgeStyle=orthogonalEdgeStyle;rounded=0;html=1;" edge="1" parent="1" source="inputAlfajores" target="inputGaseosas">
          <mxGeometry relative="1" as="geometry" />
        </mxCell>
        <mxCell id="e4" style="edgeStyle=orthogonalEdgeStyle;rounded=0;html=1;" edge="1" parent="1" source="inputGaseosas" target="decGalletas">
          <mxGeometry relative="1" as="geometry" />
        </mxCell>
        <mxCell id="e5" value="Sí" style="edgeStyle=orthogonalEdgeStyle;rounded=0;html=1;exitX=0;exitY=0.5;" edge="1" parent="1" source="decGalletas" target="yesGalletas">
          <mxGeometry relative="1" as="geometry" />
        </mxCell>
        <mxCell id="e6" value="No" style="edgeStyle=orthogonalEdgeStyle;rounded=0;html=1;exitX=1;exitY=0.5;" edge="1" parent="1" source="decGalletas" target="noGalletas">
          <mxGeometry relative="1" as="geometry" />
        </mxCell>
        <mxCell id="e7" style="edgeStyle=orthogonalEdgeStyle;rounded=0;html=1;" edge="1" parent="1" source="yesGalletas" target="mergeGalletas">
          <mxGeometry relative="1" as="geometry" />
        </mxCell>
        <mxCell id="e8" style="edgeStyle=orthogonalEdgeStyle;rounded=0;html=1;" edge="1" parent="1" source="noGalletas" target="mergeGalletas">
          <mxGeometry relative="1" as="geometry" />
        </mxCell>
        <mxCell id="e9" style="edgeStyle=orthogonalEdgeStyle;rounded=0;html=1;" edge="1" parent="1" source="mergeGalletas" target="decAlfajores">
          <mxGeometry relative="1" as="geometry" />
        </mxCell>
        <mxCell id="e10" value="Sí" style="edgeStyle=orthogonalEdgeStyle;rounded=0;html=1;exitX=0;exitY=0.5;" edge="1" parent="1" source="decAlfajores" target="yesAlfajores">
          <mxGeometry relative="1" as="geometry" />
        </mxCell>
        <mxCell id="e11" value="No" style="edgeStyle=orthogonalEdgeStyle;rounded=0;html=1;exitX=1;exitY=0.5;" edge="1" parent="1" source="decAlfajores" target="noAlfajores">
          <mxGeometry relative="1" as="geometry" />
        </mxCell>
        <mxCell id="e12" style="edgeStyle=orthogonalEdgeStyle;rounded=0;html=1;" edge="1" parent="1" source="yesAlfajores" target="mergeAlfajores">
          <mxGeometry relative="1" as="geometry" />
        </mxCell>
        <mxCell id="e13" style="edgeStyle=orthogonalEdgeStyle;rounded=0;html=1;" edge="1" parent="1" source="noAlfajores" target="mergeAlfajores">
          <mxGeometry relative="1" as="geometry" />
        </mxCell>
        <mxCell id="e14" style="edgeStyle=orthogonalEdgeStyle;rounded=0;html=1;" edge="1" parent="1" source="mergeAlfajores" target="decGaseosas">
          <mxGeometry relative="1" as="geometry" />
        </mxCell>
        <mxCell id="e15" value="Sí" style="edgeStyle=orthogonalEdgeStyle;rounded=0;html=1;exitX=0;exitY=0.5;" edge="1" parent="1" source="decGaseosas" target="yesGaseosas">
          <mxGeometry relative="1" as="geometry" />
        </mxCell>
        <mxCell id="e16" value="No" style="edgeStyle=orthogonalEdgeStyle;rounded=0;html=1;exitX=1;exitY=0.5;" edge="1" parent="1" source="decGaseosas" target="noGaseosas">
          <mxGeometry relative="1" as="geometry" />
        </mxCell>
        <mxCell id="e17" style="edgeStyle=orthogonalEdgeStyle;rounded=0;html=1;" edge="1" parent="1" source="yesGaseosas" target="mergeGaseosas">
          <mxGeometry relative="1" as="geometry" />
        </mxCell>
        <mxCell id="e18" style="edgeStyle=orthogonalEdgeStyle;rounded=0;html=1;" edge="1" parent="1" source="noGaseosas" target="mergeGaseosas">
          <mxGeometry relative="1" as="geometry" />
        </mxCell>
        <mxCell id="e19" style="edgeStyle=orthogonalEdgeStyle;rounded=0;html=1;" edge="1" parent="1" source="mergeGaseosas" target="calcTotal">
          <mxGeometry relative="1" as="geometry" />
        </mxCell>
        <mxCell id="e20" style="edgeStyle=orthogonalEdgeStyle;rounded=0;html=1;" edge="1" parent="1" source="calcTotal" target="output">
          <mxGeometry relative="1" as="geometry" />
        </mxCell>
        <mxCell id="e21" style="edgeStyle=orthogonalEdgeStyle;rounded=0;html=1;" edge="1" parent="1" source="output" target="end">
          <mxGeometry relative="1" as="geometry" />
        </mxCell>
      </root>
    </mxGraphModel>
  </diagram>
</mxfile>
